<mxfile host="app.diagrams.net" modified="2022-01-07T01:34:14.579Z" agent="5.0 (Windows NT 10.0; Win64; x64) AppleWebKit/537.36 (KHTML, like Gecko) Chrome/96.0.4664.110 Safari/537.36" etag="RAuNYJN30akWX8-mALz-" version="16.2.1" type="github">
  <diagram id="7Fsj96jIsSGY6DjgCbAe" name="Page-1">
    <mxGraphModel dx="1633" dy="771" grid="1" gridSize="10" guides="1" tooltips="1" connect="1" arrows="1" fold="1" page="1" pageScale="1" pageWidth="827" pageHeight="1169" math="0" shadow="0">
      <root>
        <mxCell id="0" />
        <mxCell id="1" parent="0" />
        <mxCell id="grhwsShfNfTtGUNL-nIA-23" value="Observer Pattern" style="text;html=1;strokeColor=#d6b656;fillColor=#fff2cc;align=center;verticalAlign=middle;whiteSpace=wrap;rounded=0;fontSize=18;fontStyle=1" vertex="1" parent="1">
          <mxGeometry x="163" y="1780" width="425" height="40" as="geometry" />
        </mxCell>
        <mxCell id="grhwsShfNfTtGUNL-nIA-24" value="&lt;p style=&quot;margin: 0px ; margin-top: 4px ; text-align: center&quot;&gt;&lt;span style=&quot;color: rgba(0 , 0 , 0 , 0) ; font-family: monospace ; font-size: 0px&quot;&gt;3CmxGraphModel%3E%3Croot%3E%3CmxCell%20id%3D%220%22%2F%3E%3CmxCell%20id%3D%221%22%20parent%3D%220%22%2F%3E%3CmxCell%20id%3D%222%22%20value%3D%22%22%20style%3D%22endArrow%3Dblock%3BendSize%3D16%3BendFill%3D0%3Bhtml%3D1%3BexitX%3D0.5%3BexitY%3D0%3BexitDx%3D0%3BexitDy%3D0%3Belbow%3Dvertical%3Brounded%3D0%3BentryX%3D0.2%3BentryY%3D1.011%3BentryDx%3D0%3BentryDy%3D0%3BentryPerimeter%3D0%3B%22%20edge%3D%221%22%20parent%3D%221%22%3E%3CmxGeometry%20width%3D%22160%22%20relative%3D%221%22%20as%3D%22geometry%22%3E%3CmxPoint%20x%3D%22135%22%20y%3D%221470%22%20as%3D%22sourcePoint%22%2F%3E%3CmxPoint%20x%3D%22212%22%20y%3D%221392.0900000000001%22%20as%3D%22targetPoint%22%2F%3E%3C%2FmxGeometry%3E%3C%2FmxCell%3E%3C%2Froot%3E%3C%2FmxGraphModel%3E&lt;/span&gt;&lt;br&gt;&lt;b&gt;Observable&lt;/b&gt;&lt;/p&gt;&lt;p style=&quot;margin: 0px ; margin-left: 4px&quot;&gt;&lt;br&gt;&lt;/p&gt;&lt;hr size=&quot;1&quot;&gt;&lt;p style=&quot;margin: 0px ; margin-left: 4px&quot;&gt;+addObserver()&lt;br&gt;&lt;/p&gt;&lt;p style=&quot;margin: 0px ; margin-left: 4px&quot;&gt;+deleteObserver()&lt;/p&gt;&lt;p style=&quot;margin: 0px ; margin-left: 4px&quot;&gt;+notifyObservers()&lt;/p&gt;&lt;p style=&quot;margin: 0px ; margin-left: 4px&quot;&gt;+setChanged()&lt;/p&gt;" style="verticalAlign=top;align=left;overflow=fill;fontSize=12;fontFamily=Helvetica;html=1;" vertex="1" parent="1">
          <mxGeometry x="-7" y="1850" width="190" height="140" as="geometry" />
        </mxCell>
        <mxCell id="grhwsShfNfTtGUNL-nIA-25" value="&lt;p style=&quot;margin: 0px ; margin-top: 4px ; text-align: center&quot;&gt;&lt;i&gt;&amp;lt;&amp;lt;Interface&amp;gt;&amp;gt;&lt;/i&gt;&lt;br&gt;&lt;b&gt;Observer&lt;/b&gt;&lt;/p&gt;&lt;p style=&quot;margin: 0px ; margin-left: 4px&quot;&gt;&lt;br&gt;&lt;/p&gt;&lt;hr size=&quot;1&quot;&gt;&lt;p style=&quot;margin: 0px ; margin-left: 4px&quot;&gt;+update()&lt;/p&gt;" style="verticalAlign=top;align=left;overflow=fill;fontSize=12;fontFamily=Helvetica;html=1;" vertex="1" parent="1">
          <mxGeometry x="316" y="1850" width="190" height="80" as="geometry" />
        </mxCell>
        <mxCell id="grhwsShfNfTtGUNL-nIA-26" value="" style="endArrow=open;endFill=1;endSize=12;html=1;exitX=1;exitY=0.25;exitDx=0;exitDy=0;" edge="1" parent="1" source="grhwsShfNfTtGUNL-nIA-24">
          <mxGeometry width="160" relative="1" as="geometry">
            <mxPoint x="193" y="1950" as="sourcePoint" />
            <mxPoint x="316" y="1885" as="targetPoint" />
          </mxGeometry>
        </mxCell>
        <mxCell id="grhwsShfNfTtGUNL-nIA-27" value="observers" style="text;html=1;align=center;verticalAlign=middle;resizable=0;points=[];autosize=1;strokeColor=none;" vertex="1" parent="1">
          <mxGeometry x="243" y="1860" width="70" height="20" as="geometry" />
        </mxCell>
        <mxCell id="grhwsShfNfTtGUNL-nIA-28" value="&lt;p style=&quot;margin: 0px ; margin-top: 4px ; text-align: center&quot;&gt;&lt;b&gt;WeatherData&lt;/b&gt;&lt;/p&gt;&lt;hr size=&quot;1&quot;&gt;&lt;p style=&quot;margin: 0px ; margin-left: 4px&quot;&gt;&lt;/p&gt;&lt;p style=&quot;margin: 0px ; margin-left: 4px&quot;&gt;&lt;span&gt;+getTemperature()&lt;/span&gt;&lt;br&gt;&lt;/p&gt;&lt;p style=&quot;margin: 0px ; margin-left: 4px&quot;&gt;+getHumidity()&lt;/p&gt;&lt;p style=&quot;margin: 0px ; margin-left: 4px&quot;&gt;+getPressure()&lt;br&gt;&lt;/p&gt;&lt;p style=&quot;margin: 0px ; margin-left: 4px&quot;&gt;+measurementChanged()&lt;/p&gt;" style="verticalAlign=top;align=left;overflow=fill;fontSize=12;fontFamily=Helvetica;html=1;" vertex="1" parent="1">
          <mxGeometry x="8" y="2080" width="160" height="150" as="geometry" />
        </mxCell>
        <mxCell id="grhwsShfNfTtGUNL-nIA-29" value="" style="endArrow=block;dashed=1;endFill=0;endSize=12;html=1;exitX=0.5;exitY=0;exitDx=0;exitDy=0;entryX=0.5;entryY=1;entryDx=0;entryDy=0;" edge="1" parent="1" source="grhwsShfNfTtGUNL-nIA-30" target="grhwsShfNfTtGUNL-nIA-25">
          <mxGeometry width="160" relative="1" as="geometry">
            <mxPoint x="425.5" y="2160" as="sourcePoint" />
            <mxPoint x="478" y="1980" as="targetPoint" />
          </mxGeometry>
        </mxCell>
        <mxCell id="grhwsShfNfTtGUNL-nIA-30" value="&lt;p style=&quot;margin: 0px ; margin-top: 4px ; text-align: center&quot;&gt;&lt;b&gt;CurrentConditionDisplay&lt;/b&gt;&lt;/p&gt;&lt;hr size=&quot;1&quot;&gt;&lt;p style=&quot;margin: 0px ; margin-left: 4px&quot;&gt;&lt;/p&gt;&lt;p style=&quot;margin: 0px ; margin-left: 4px&quot;&gt;+update()&lt;/p&gt;&lt;p style=&quot;margin: 0px ; margin-left: 4px&quot;&gt;+display () {&lt;/p&gt;&lt;p style=&quot;margin: 0px ; margin-left: 4px&quot;&gt;&amp;nbsp;// display current&lt;/p&gt;&lt;p style=&quot;margin: 0px ; margin-left: 4px&quot;&gt;&amp;nbsp;measurements&lt;/p&gt;&lt;p style=&quot;margin: 0px ; margin-left: 4px&quot;&gt;}&lt;/p&gt;" style="verticalAlign=top;align=left;overflow=fill;fontSize=12;fontFamily=Helvetica;html=1;" vertex="1" parent="1">
          <mxGeometry x="331" y="2080" width="160" height="120" as="geometry" />
        </mxCell>
        <mxCell id="grhwsShfNfTtGUNL-nIA-31" value="" style="endArrow=open;endFill=1;endSize=12;html=1;exitX=0;exitY=0.25;exitDx=0;exitDy=0;" edge="1" parent="1" source="grhwsShfNfTtGUNL-nIA-30">
          <mxGeometry width="160" relative="1" as="geometry">
            <mxPoint x="193" y="1895" as="sourcePoint" />
            <mxPoint x="168" y="2110" as="targetPoint" />
          </mxGeometry>
        </mxCell>
        <mxCell id="grhwsShfNfTtGUNL-nIA-32" value="subject" style="text;html=1;align=center;verticalAlign=middle;resizable=0;points=[];autosize=1;strokeColor=none;" vertex="1" parent="1">
          <mxGeometry x="178" y="2090" width="50" height="20" as="geometry" />
        </mxCell>
        <mxCell id="grhwsShfNfTtGUNL-nIA-33" value="&lt;p style=&quot;margin: 0px ; margin-top: 4px ; text-align: center&quot;&gt;&lt;i&gt;&amp;lt;&amp;lt;Interface&amp;gt;&amp;gt;&lt;/i&gt;&lt;br&gt;&lt;b&gt;DisplayElement&lt;/b&gt;&lt;/p&gt;&lt;p style=&quot;margin: 0px ; margin-left: 4px&quot;&gt;&lt;br&gt;&lt;/p&gt;&lt;hr size=&quot;1&quot;&gt;&lt;p style=&quot;margin: 0px ; margin-left: 4px&quot;&gt;+display()&lt;/p&gt;" style="verticalAlign=top;align=left;overflow=fill;fontSize=12;fontFamily=Helvetica;html=1;" vertex="1" parent="1">
          <mxGeometry x="528" y="1850" width="190" height="80" as="geometry" />
        </mxCell>
        <mxCell id="grhwsShfNfTtGUNL-nIA-34" value="&lt;p style=&quot;margin: 0px ; margin-top: 4px ; text-align: center&quot;&gt;&lt;b&gt;StatisticsDisplay&lt;/b&gt;&lt;br&gt;&lt;/p&gt;&lt;hr size=&quot;1&quot;&gt;&lt;p style=&quot;margin: 0px ; margin-left: 4px&quot;&gt;&lt;/p&gt;&lt;p style=&quot;margin: 0px 0px 0px 4px&quot;&gt;+update()&lt;/p&gt;&lt;p style=&quot;margin: 0px 0px 0px 4px&quot;&gt;+display () {&lt;/p&gt;&lt;p style=&quot;margin: 0px 0px 0px 4px&quot;&gt;&amp;nbsp;// display avg,min and max&lt;/p&gt;&lt;p style=&quot;margin: 0px 0px 0px 4px&quot;&gt;&amp;nbsp;measurements&lt;/p&gt;&lt;p style=&quot;margin: 0px 0px 0px 4px&quot;&gt;}&lt;/p&gt;" style="verticalAlign=top;align=left;overflow=fill;fontSize=12;fontFamily=Helvetica;html=1;" vertex="1" parent="1">
          <mxGeometry x="506" y="2080" width="160" height="120" as="geometry" />
        </mxCell>
        <mxCell id="grhwsShfNfTtGUNL-nIA-35" value="&lt;p style=&quot;margin: 0px ; margin-top: 4px ; text-align: center&quot;&gt;&lt;b&gt;ForecastDisplay&lt;/b&gt;&lt;/p&gt;&lt;hr size=&quot;1&quot;&gt;&lt;p style=&quot;margin: 0px ; margin-left: 4px&quot;&gt;&lt;/p&gt;&lt;p style=&quot;margin: 0px 0px 0px 4px&quot;&gt;+update()&lt;/p&gt;&lt;p style=&quot;margin: 0px 0px 0px 4px&quot;&gt;+display () {&lt;/p&gt;&lt;p style=&quot;margin: 0px 0px 0px 4px&quot;&gt;&amp;nbsp;// display forecast&lt;/p&gt;&lt;p style=&quot;margin: 0px 0px 0px 4px&quot;&gt;&lt;span&gt;}&lt;/span&gt;&lt;/p&gt;" style="verticalAlign=top;align=left;overflow=fill;fontSize=12;fontFamily=Helvetica;html=1;" vertex="1" parent="1">
          <mxGeometry x="675" y="2080" width="160" height="120" as="geometry" />
        </mxCell>
        <mxCell id="grhwsShfNfTtGUNL-nIA-36" value="" style="endArrow=open;endFill=1;endSize=12;html=1;exitX=0.5;exitY=1;exitDx=0;exitDy=0;edgeStyle=orthogonalEdgeStyle;" edge="1" parent="1" source="grhwsShfNfTtGUNL-nIA-34">
          <mxGeometry width="160" relative="1" as="geometry">
            <mxPoint x="331" y="2210" as="sourcePoint" />
            <mxPoint x="168" y="2210" as="targetPoint" />
            <Array as="points">
              <mxPoint x="586" y="2210" />
            </Array>
          </mxGeometry>
        </mxCell>
        <mxCell id="grhwsShfNfTtGUNL-nIA-37" value="subject" style="text;html=1;align=center;verticalAlign=middle;resizable=0;points=[];autosize=1;strokeColor=none;" vertex="1" parent="1">
          <mxGeometry x="178" y="2190" width="50" height="20" as="geometry" />
        </mxCell>
        <mxCell id="grhwsShfNfTtGUNL-nIA-38" value="" style="endArrow=open;endFill=1;endSize=12;html=1;exitX=0.5;exitY=1;exitDx=0;exitDy=0;edgeStyle=orthogonalEdgeStyle;" edge="1" parent="1" source="grhwsShfNfTtGUNL-nIA-35">
          <mxGeometry width="160" relative="1" as="geometry">
            <mxPoint x="331" y="2230" as="sourcePoint" />
            <mxPoint x="168" y="2230" as="targetPoint" />
            <Array as="points">
              <mxPoint x="755" y="2230" />
            </Array>
          </mxGeometry>
        </mxCell>
        <mxCell id="grhwsShfNfTtGUNL-nIA-39" value="subject" style="text;html=1;align=center;verticalAlign=middle;resizable=0;points=[];autosize=1;strokeColor=none;" vertex="1" parent="1">
          <mxGeometry x="178" y="2210" width="50" height="20" as="geometry" />
        </mxCell>
        <mxCell id="grhwsShfNfTtGUNL-nIA-40" value="" style="endArrow=block;dashed=1;endFill=0;endSize=12;html=1;exitX=0.5;exitY=0;exitDx=0;exitDy=0;entryX=0.584;entryY=1.025;entryDx=0;entryDy=0;entryPerimeter=0;" edge="1" parent="1" source="grhwsShfNfTtGUNL-nIA-34" target="grhwsShfNfTtGUNL-nIA-25">
          <mxGeometry width="160" relative="1" as="geometry">
            <mxPoint x="421" y="2090" as="sourcePoint" />
            <mxPoint x="421" y="1940" as="targetPoint" />
          </mxGeometry>
        </mxCell>
        <mxCell id="grhwsShfNfTtGUNL-nIA-41" value="" style="endArrow=block;dashed=1;endFill=0;endSize=12;html=1;exitX=0.5;exitY=0;exitDx=0;exitDy=0;entryX=0.721;entryY=1.038;entryDx=0;entryDy=0;entryPerimeter=0;" edge="1" parent="1" source="grhwsShfNfTtGUNL-nIA-35" target="grhwsShfNfTtGUNL-nIA-25">
          <mxGeometry width="160" relative="1" as="geometry">
            <mxPoint x="596" y="2090" as="sourcePoint" />
            <mxPoint x="436.96000000000004" y="1942" as="targetPoint" />
          </mxGeometry>
        </mxCell>
        <mxCell id="grhwsShfNfTtGUNL-nIA-42" value="" style="endArrow=block;dashed=1;endFill=0;endSize=12;html=1;exitX=0.5;exitY=0;exitDx=0;exitDy=0;entryX=0.442;entryY=1.025;entryDx=0;entryDy=0;entryPerimeter=0;" edge="1" parent="1" source="grhwsShfNfTtGUNL-nIA-30" target="grhwsShfNfTtGUNL-nIA-33">
          <mxGeometry width="160" relative="1" as="geometry">
            <mxPoint x="765" y="2090" as="sourcePoint" />
            <mxPoint x="462.99" y="1943.04" as="targetPoint" />
          </mxGeometry>
        </mxCell>
        <mxCell id="grhwsShfNfTtGUNL-nIA-43" value="" style="endArrow=block;dashed=1;endFill=0;endSize=12;html=1;exitX=0.5;exitY=0;exitDx=0;exitDy=0;entryX=0.5;entryY=1;entryDx=0;entryDy=0;" edge="1" parent="1" source="grhwsShfNfTtGUNL-nIA-34" target="grhwsShfNfTtGUNL-nIA-33">
          <mxGeometry width="160" relative="1" as="geometry">
            <mxPoint x="421" y="2090" as="sourcePoint" />
            <mxPoint x="621.98" y="1942" as="targetPoint" />
          </mxGeometry>
        </mxCell>
        <mxCell id="grhwsShfNfTtGUNL-nIA-44" value="" style="endArrow=block;dashed=1;endFill=0;endSize=12;html=1;exitX=0.5;exitY=0;exitDx=0;exitDy=0;entryX=0.674;entryY=1.025;entryDx=0;entryDy=0;entryPerimeter=0;" edge="1" parent="1" source="grhwsShfNfTtGUNL-nIA-35" target="grhwsShfNfTtGUNL-nIA-33">
          <mxGeometry width="160" relative="1" as="geometry">
            <mxPoint x="596" y="2090" as="sourcePoint" />
            <mxPoint x="633" y="1940" as="targetPoint" />
          </mxGeometry>
        </mxCell>
        <mxCell id="grhwsShfNfTtGUNL-nIA-45" value="" style="endArrow=block;endSize=16;endFill=0;html=1;exitX=0.5;exitY=0;exitDx=0;exitDy=0;elbow=vertical;rounded=0;entryX=0.5;entryY=1;entryDx=0;entryDy=0;" edge="1" parent="1" source="grhwsShfNfTtGUNL-nIA-28" target="grhwsShfNfTtGUNL-nIA-24">
          <mxGeometry width="160" relative="1" as="geometry">
            <mxPoint x="-17" y="2110" as="sourcePoint" />
            <mxPoint x="60" y="2032.0900000000001" as="targetPoint" />
          </mxGeometry>
        </mxCell>
        <mxCell id="grhwsShfNfTtGUNL-nIA-65" value="Iterator Pattern" style="text;html=1;strokeColor=#d6b656;fillColor=#fff2cc;align=center;verticalAlign=middle;whiteSpace=wrap;rounded=0;fontSize=18;fontStyle=1" vertex="1" parent="1">
          <mxGeometry x="240" y="790" width="280" height="40" as="geometry" />
        </mxCell>
        <mxCell id="grhwsShfNfTtGUNL-nIA-66" value="&lt;p style=&quot;margin: 0px ; margin-top: 4px ; text-align: center&quot;&gt;&lt;b&gt;Client&lt;/b&gt;&lt;/p&gt;&lt;hr size=&quot;1&quot;&gt;&lt;div style=&quot;height: 2px&quot;&gt;&lt;/div&gt;" style="verticalAlign=top;align=left;overflow=fill;fontSize=12;fontFamily=Helvetica;html=1;" vertex="1" parent="1">
          <mxGeometry x="304" y="890" width="140" height="60" as="geometry" />
        </mxCell>
        <mxCell id="grhwsShfNfTtGUNL-nIA-67" value="&lt;p style=&quot;margin: 0px ; margin-top: 4px ; text-align: center&quot;&gt;&lt;i&gt;&amp;lt;&amp;lt;Interface&amp;gt;&amp;gt;&lt;/i&gt;&lt;br&gt;&lt;b&gt;Aggregate&lt;/b&gt;&lt;/p&gt;&lt;hr size=&quot;1&quot;&gt;&lt;p style=&quot;margin: 0px ; margin-left: 4px&quot;&gt;&lt;/p&gt;&lt;p style=&quot;margin: 0px ; margin-left: 4px&quot;&gt;+createIterator ()&lt;/p&gt;" style="verticalAlign=top;align=left;overflow=fill;fontSize=12;fontFamily=Helvetica;html=1;" vertex="1" parent="1">
          <mxGeometry x="50" y="890" width="170" height="90" as="geometry" />
        </mxCell>
        <mxCell id="grhwsShfNfTtGUNL-nIA-68" value="&lt;p style=&quot;margin: 0px ; margin-top: 4px ; text-align: center&quot;&gt;&lt;i&gt;&amp;lt;&amp;lt;Interface&amp;gt;&amp;gt;&lt;/i&gt;&lt;br&gt;&lt;b&gt;Iterator&lt;/b&gt;&lt;/p&gt;&lt;hr size=&quot;1&quot;&gt;&lt;p style=&quot;margin: 0px ; margin-left: 4px&quot;&gt;&lt;/p&gt;&lt;p style=&quot;margin: 0px ; margin-left: 4px&quot;&gt;+hasNext()&lt;/p&gt;&lt;p style=&quot;margin: 0px ; margin-left: 4px&quot;&gt;+next()&lt;br&gt;&lt;/p&gt;&lt;p style=&quot;margin: 0px ; margin-left: 4px&quot;&gt;+remove()&lt;br&gt;&lt;/p&gt;" style="verticalAlign=top;align=left;overflow=fill;fontSize=12;fontFamily=Helvetica;html=1;" vertex="1" parent="1">
          <mxGeometry x="520" y="890" width="170" height="90" as="geometry" />
        </mxCell>
        <mxCell id="grhwsShfNfTtGUNL-nIA-69" value="" style="endArrow=open;endFill=1;endSize=12;html=1;entryX=0;entryY=0.25;entryDx=0;entryDy=0;" edge="1" parent="1" target="grhwsShfNfTtGUNL-nIA-68">
          <mxGeometry width="160" relative="1" as="geometry">
            <mxPoint x="444" y="913" as="sourcePoint" />
            <mxPoint x="450" y="1200" as="targetPoint" />
          </mxGeometry>
        </mxCell>
        <mxCell id="grhwsShfNfTtGUNL-nIA-70" value="" style="endArrow=open;endFill=1;endSize=12;html=1;entryX=1;entryY=0.25;entryDx=0;entryDy=0;exitX=0.007;exitY=0.367;exitDx=0;exitDy=0;exitPerimeter=0;" edge="1" parent="1" source="grhwsShfNfTtGUNL-nIA-66" target="grhwsShfNfTtGUNL-nIA-67">
          <mxGeometry width="160" relative="1" as="geometry">
            <mxPoint x="280" y="950" as="sourcePoint" />
            <mxPoint x="530" y="922.5" as="targetPoint" />
          </mxGeometry>
        </mxCell>
        <mxCell id="grhwsShfNfTtGUNL-nIA-71" value="" style="endArrow=block;dashed=1;endFill=0;endSize=12;html=1;exitX=0.5;exitY=0;exitDx=0;exitDy=0;entryX=0.5;entryY=1;entryDx=0;entryDy=0;" edge="1" parent="1" source="grhwsShfNfTtGUNL-nIA-72" target="grhwsShfNfTtGUNL-nIA-67">
          <mxGeometry width="160" relative="1" as="geometry">
            <mxPoint x="82.5" y="1180" as="sourcePoint" />
            <mxPoint x="135" y="1000" as="targetPoint" />
          </mxGeometry>
        </mxCell>
        <mxCell id="grhwsShfNfTtGUNL-nIA-72" value="&lt;p style=&quot;margin: 0px ; margin-top: 4px ; text-align: center&quot;&gt;&lt;b&gt;ConcreteAggregate&lt;/b&gt;&lt;/p&gt;&lt;hr size=&quot;1&quot;&gt;&lt;p style=&quot;margin: 0px ; margin-left: 4px&quot;&gt;&lt;/p&gt;&lt;p style=&quot;margin: 0px ; margin-left: 4px&quot;&gt;+createIterator ()&lt;/p&gt;" style="verticalAlign=top;align=left;overflow=fill;fontSize=12;fontFamily=Helvetica;html=1;" vertex="1" parent="1">
          <mxGeometry x="55" y="1060" width="160" height="120" as="geometry" />
        </mxCell>
        <mxCell id="grhwsShfNfTtGUNL-nIA-73" value="" style="endArrow=block;dashed=1;endFill=0;endSize=12;html=1;exitX=0.5;exitY=0;exitDx=0;exitDy=0;entryX=0.5;entryY=1;entryDx=0;entryDy=0;" edge="1" parent="1" source="grhwsShfNfTtGUNL-nIA-74" target="grhwsShfNfTtGUNL-nIA-68">
          <mxGeometry width="160" relative="1" as="geometry">
            <mxPoint x="552.5" y="1180" as="sourcePoint" />
            <mxPoint x="605" y="990" as="targetPoint" />
          </mxGeometry>
        </mxCell>
        <mxCell id="grhwsShfNfTtGUNL-nIA-74" value="&lt;p style=&quot;margin: 0px ; margin-top: 4px ; text-align: center&quot;&gt;&lt;b&gt;ConcreteIterator&lt;/b&gt;&lt;/p&gt;&lt;hr size=&quot;1&quot;&gt;&lt;p style=&quot;margin: 0px ; margin-left: 4px&quot;&gt;&lt;/p&gt;&lt;p style=&quot;margin: 0px 0px 0px 4px&quot;&gt;+hasNext()&lt;/p&gt;&lt;p style=&quot;margin: 0px 0px 0px 4px&quot;&gt;+next()&lt;br&gt;&lt;/p&gt;&lt;p style=&quot;margin: 0px 0px 0px 4px&quot;&gt;+remove()&lt;/p&gt;" style="verticalAlign=top;align=left;overflow=fill;fontSize=12;fontFamily=Helvetica;html=1;" vertex="1" parent="1">
          <mxGeometry x="525" y="1060" width="160" height="120" as="geometry" />
        </mxCell>
        <mxCell id="grhwsShfNfTtGUNL-nIA-75" value="&amp;lt;&amp;lt;create&amp;gt;&amp;gt;" style="html=1;verticalAlign=bottom;endArrow=open;dashed=1;endSize=8;exitX=1;exitY=0.25;exitDx=0;exitDy=0;entryX=0;entryY=0.25;entryDx=0;entryDy=0;" edge="1" parent="1" source="grhwsShfNfTtGUNL-nIA-72" target="grhwsShfNfTtGUNL-nIA-74">
          <mxGeometry y="10" relative="1" as="geometry">
            <mxPoint x="390" y="1210" as="sourcePoint" />
            <mxPoint x="310" y="1210" as="targetPoint" />
            <mxPoint as="offset" />
          </mxGeometry>
        </mxCell>
        <mxCell id="grhwsShfNfTtGUNL-nIA-76" value="Command Pattern" style="text;html=1;strokeColor=#d6b656;fillColor=#fff2cc;align=center;verticalAlign=middle;whiteSpace=wrap;rounded=0;fontSize=18;fontStyle=1" vertex="1" parent="1">
          <mxGeometry x="170" y="320" width="425" height="40" as="geometry" />
        </mxCell>
        <mxCell id="grhwsShfNfTtGUNL-nIA-77" value="&lt;p style=&quot;margin: 0px ; margin-top: 4px ; text-align: center&quot;&gt;&lt;i&gt;&amp;lt;&amp;lt;Interface&amp;gt;&amp;gt;&lt;/i&gt;&lt;br&gt;&lt;b&gt;Runnable&lt;/b&gt;&lt;/p&gt;&lt;p style=&quot;margin: 0px ; margin-left: 4px&quot;&gt;&lt;br&gt;&lt;/p&gt;&lt;hr size=&quot;1&quot;&gt;&lt;p style=&quot;margin: 0px ; margin-left: 4px&quot;&gt;+run()&lt;/p&gt;" style="verticalAlign=top;align=left;overflow=fill;fontSize=12;fontFamily=Helvetica;html=1;" vertex="1" parent="1">
          <mxGeometry x="425" y="410" width="190" height="80" as="geometry" />
        </mxCell>
        <mxCell id="grhwsShfNfTtGUNL-nIA-78" value="" style="endArrow=block;dashed=1;endFill=0;endSize=12;html=1;exitX=0.5;exitY=0;exitDx=0;exitDy=0;entryX=0.5;entryY=1;entryDx=0;entryDy=0;" edge="1" parent="1" source="grhwsShfNfTtGUNL-nIA-79">
          <mxGeometry width="160" relative="1" as="geometry">
            <mxPoint x="539.5" y="720" as="sourcePoint" />
            <mxPoint x="525" y="490" as="targetPoint" />
          </mxGeometry>
        </mxCell>
        <mxCell id="grhwsShfNfTtGUNL-nIA-79" value="&lt;p style=&quot;margin: 0px ; margin-top: 4px ; text-align: center&quot;&gt;&lt;b&gt;TVOnCommand&lt;/b&gt;&lt;/p&gt;&lt;hr size=&quot;1&quot;&gt;&lt;p style=&quot;margin: 0px ; margin-left: 4px&quot;&gt;&lt;/p&gt;&lt;p style=&quot;margin: 0px ; margin-left: 4px&quot;&gt;+run()&lt;/p&gt;" style="verticalAlign=top;align=left;overflow=fill;fontSize=12;fontFamily=Helvetica;html=1;" vertex="1" parent="1">
          <mxGeometry x="345" y="570" width="160" height="70" as="geometry" />
        </mxCell>
        <mxCell id="grhwsShfNfTtGUNL-nIA-80" value="" style="endArrow=block;dashed=1;endFill=0;endSize=12;html=1;exitX=0.5;exitY=0;exitDx=0;exitDy=0;entryX=0.5;entryY=1;entryDx=0;entryDy=0;" edge="1" parent="1" source="grhwsShfNfTtGUNL-nIA-81" target="grhwsShfNfTtGUNL-nIA-77">
          <mxGeometry width="160" relative="1" as="geometry">
            <mxPoint x="709.5" y="720" as="sourcePoint" />
            <mxPoint x="695" y="490" as="targetPoint" />
          </mxGeometry>
        </mxCell>
        <mxCell id="grhwsShfNfTtGUNL-nIA-81" value="&lt;p style=&quot;margin: 0px ; margin-top: 4px ; text-align: center&quot;&gt;&lt;b&gt;LampOnCommand&lt;/b&gt;&lt;/p&gt;&lt;hr size=&quot;1&quot;&gt;&lt;p style=&quot;margin: 0px ; margin-left: 4px&quot;&gt;&lt;/p&gt;&lt;p style=&quot;margin: 0px ; margin-left: 4px&quot;&gt;+run()&lt;/p&gt;" style="verticalAlign=top;align=left;overflow=fill;fontSize=12;fontFamily=Helvetica;html=1;" vertex="1" parent="1">
          <mxGeometry x="530" y="570" width="160" height="70" as="geometry" />
        </mxCell>
        <mxCell id="grhwsShfNfTtGUNL-nIA-82" value="&lt;p style=&quot;margin: 0px ; margin-top: 4px ; text-align: center&quot;&gt;&lt;span style=&quot;color: rgba(0 , 0 , 0 , 0) ; font-family: monospace ; font-size: 0px&quot;&gt;3CmxGraphModel%3E%3Croot%3E%3CmxCell%20id%3D%220%22%2F%3E%3CmxCell%20id%3D%221%22%20parent%3D%220%22%2F%3E%3CmxCell%20id%3D%222%22%20value%3D%22%22%20style%3D%22endArrow%3Dblock%3BendSize%3D16%3BendFill%3D0%3Bhtml%3D1%3BexitX%3D0.5%3BexitY%3D0%3BexitDx%3D0%3BexitDy%3D0%3Belbow%3Dvertical%3Brounded%3D0%3BentryX%3D0.2%3BentryY%3D1.011%3BentryDx%3D0%3BentryDy%3D0%3BentryPerimeter%3D0%3B%22%20edge%3D%221%22%20parent%3D%221%22%3E%3CmxGeometry%20width%3D%22160%22%20relative%3D%221%22%20as%3D%22geometry%22%3E%3CmxPoint%20x%3D%22135%22%20y%3D%221470%22%20as%3D%22sourcePoint%22%2F%3E%3CmxPoint%20x%3D%22212%22%20y%3D%221392.0900000000001%22%20as%3D%22targetPoint%22%2F%3E%3C%2FmxGeometry%3E%3C%2FmxCell%3E%3C%2Froot%3E%3C%2FmxGraphModel%3E&lt;/span&gt;&lt;br&gt;&lt;b&gt;Invoker&lt;/b&gt;&lt;/p&gt;&lt;p style=&quot;margin: 0px ; margin-left: 4px&quot;&gt;&lt;br&gt;&lt;/p&gt;&lt;hr size=&quot;1&quot;&gt;&lt;p style=&quot;margin: 0px ; margin-left: 4px&quot;&gt;&lt;br&gt;&lt;/p&gt;" style="verticalAlign=top;align=left;overflow=fill;fontSize=12;fontFamily=Helvetica;html=1;" vertex="1" parent="1">
          <mxGeometry x="110" y="420" width="190" height="60" as="geometry" />
        </mxCell>
        <mxCell id="grhwsShfNfTtGUNL-nIA-83" value="" style="endArrow=open;endFill=1;endSize=12;html=1;exitX=1;exitY=0.25;exitDx=0;exitDy=0;" edge="1" parent="1">
          <mxGeometry width="160" relative="1" as="geometry">
            <mxPoint x="300" y="445" as="sourcePoint" />
            <mxPoint x="425" y="445" as="targetPoint" />
          </mxGeometry>
        </mxCell>
        <mxCell id="grhwsShfNfTtGUNL-nIA-84" value="command" style="text;html=1;align=center;verticalAlign=middle;resizable=0;points=[];autosize=1;strokeColor=none;" vertex="1" parent="1">
          <mxGeometry x="355" y="420" width="70" height="20" as="geometry" />
        </mxCell>
        <mxCell id="grhwsShfNfTtGUNL-nIA-85" value="&lt;p style=&quot;margin: 0px ; margin-top: 4px ; text-align: center&quot;&gt;&lt;span style=&quot;color: rgba(0 , 0 , 0 , 0) ; font-family: monospace ; font-size: 0px&quot;&gt;3CmxGraphModel%3E%3Croot%3E%3CmxCell%20id%3D%220%22%2F%3E%3CmxCell%20id%3D%221%22%20parent%3D%220%22%2F%3E%3CmxCell%20id%3D%222%22%20value%3D%22%22%20style%3D%22endArrow%3Dblock%3BendSize%3D16%3BendFill%3D0%3Bhtml%3D1%3BexitX%3D0.5%3BexitY%3D0%3BexitDx%3D0%3BexitDy%3D0%3Belbow%3Dvertical%3Brounded%3D0%3BentryX%3D0.2%3BentryY%3D1.011%3BentryDx%3D0%3BentryDy%3D0%3BentryPerimeter%3D0%3B%22%20edge%3D%221%22%20parent%3D%221%22%3E%3CmxGeometry%20width%3D%22160%22%20relative%3D%221%22%20as%3D%22geometry%22%3E%3CmxPoint%20x%3D%22135%22%20y%3D%221470%22%20as%3D%22sourcePoint%22%2F%3E%3CmxPoint%20x%3D%22212%22%20y%3D%221392.0900000000001%22%20as%3D%22targetPoint%22%2F%3E%3C%2FmxGeometry%3E%3C%2FmxCell%3E%3C%2Froot%3E%3C%2FmxGraphModel%3E&lt;/span&gt;&lt;br&gt;&lt;b&gt;TV&lt;/b&gt;&lt;/p&gt;&lt;p style=&quot;margin: 0px ; margin-left: 4px&quot;&gt;&lt;br&gt;&lt;/p&gt;&lt;hr size=&quot;1&quot;&gt;&lt;p style=&quot;margin: 0px ; margin-left: 4px&quot;&gt;on()&lt;/p&gt;" style="verticalAlign=top;align=left;overflow=fill;fontSize=12;fontFamily=Helvetica;html=1;" vertex="1" parent="1">
          <mxGeometry x="145" y="565" width="90" height="80" as="geometry" />
        </mxCell>
        <mxCell id="grhwsShfNfTtGUNL-nIA-86" value="&lt;p style=&quot;margin: 0px ; margin-top: 4px ; text-align: center&quot;&gt;&lt;span style=&quot;color: rgba(0 , 0 , 0 , 0) ; font-family: monospace ; font-size: 0px&quot;&gt;3CmxGraphModel%3E%3Croot%3E%3CmxCell%20id%3D%220%22%2F%3E%3CmxCell%20id%3D%221%22%20parent%3D%220%22%2F%3E%3CmxCell%20id%3D%222%22%20value%3D%22%22%20style%3D%22endArrow%3Dblock%3BendSize%3D16%3BendFill%3D0%3Bhtml%3D1%3BexitX%3D0.5%3BexitY%3D0%3BexitDx%3D0%3BexitDy%3D0%3Belbow%3Dvertical%3Brounded%3D0%3BentryX%3D0.2%3BentryY%3D1.011%3BentryDx%3D0%3BentryDy%3D0%3BentryPerimeter%3D0%3B%22%20edge%3D%221%22%20parent%3D%221%22%3E%3CmxGeometry%20width%3D%22160%22%20relative%3D%221%22%20as%3D%22geometry%22%3E%3CmxPoint%20x%3D%22135%22%20y%3D%221470%22%20as%3D%22sourcePoint%22%2F%3E%3CmxPoint%20x%3D%22212%22%20y%3D%221392.0900000000001%22%20as%3D%22targetPoint%22%2F%3E%3C%2FmxGeometry%3E%3C%2FmxCell%3E%3C%2Froot%3E%3C%2FmxGraphModel%3E&lt;/span&gt;&lt;br&gt;&lt;b&gt;Lamp&lt;/b&gt;&lt;/p&gt;&lt;p style=&quot;margin: 0px ; margin-left: 4px&quot;&gt;&lt;br&gt;&lt;/p&gt;&lt;hr size=&quot;1&quot;&gt;&lt;p style=&quot;margin: 0px ; margin-left: 4px&quot;&gt;on()&lt;/p&gt;" style="verticalAlign=top;align=left;overflow=fill;fontSize=12;fontFamily=Helvetica;html=1;" vertex="1" parent="1">
          <mxGeometry x="145" y="660" width="90" height="80" as="geometry" />
        </mxCell>
        <mxCell id="grhwsShfNfTtGUNL-nIA-87" value="" style="endArrow=open;endFill=1;endSize=12;html=1;exitX=0;exitY=0.5;exitDx=0;exitDy=0;entryX=1;entryY=0.5;entryDx=0;entryDy=0;" edge="1" parent="1" source="grhwsShfNfTtGUNL-nIA-79" target="grhwsShfNfTtGUNL-nIA-85">
          <mxGeometry width="160" relative="1" as="geometry">
            <mxPoint x="310" y="455" as="sourcePoint" />
            <mxPoint x="435" y="455" as="targetPoint" />
          </mxGeometry>
        </mxCell>
        <mxCell id="grhwsShfNfTtGUNL-nIA-88" value="" style="endArrow=open;endFill=1;endSize=12;html=1;exitX=0.5;exitY=1;exitDx=0;exitDy=0;entryX=1.004;entryY=0.617;entryDx=0;entryDy=0;entryPerimeter=0;" edge="1" parent="1" source="grhwsShfNfTtGUNL-nIA-81" target="grhwsShfNfTtGUNL-nIA-86">
          <mxGeometry width="160" relative="1" as="geometry">
            <mxPoint x="345" y="699.5" as="sourcePoint" />
            <mxPoint x="225" y="700" as="targetPoint" />
            <Array as="points">
              <mxPoint x="610" y="709" />
            </Array>
          </mxGeometry>
        </mxCell>
        <mxCell id="grhwsShfNfTtGUNL-nIA-89" style="edgeStyle=orthogonalEdgeStyle;rounded=0;orthogonalLoop=1;jettySize=auto;html=1;entryX=0;entryY=0.5;entryDx=0;entryDy=0;" edge="1" parent="1" source="grhwsShfNfTtGUNL-nIA-90" target="grhwsShfNfTtGUNL-nIA-82">
          <mxGeometry relative="1" as="geometry" />
        </mxCell>
        <mxCell id="grhwsShfNfTtGUNL-nIA-90" value="Client" style="rounded=0;whiteSpace=wrap;html=1;" vertex="1" parent="1">
          <mxGeometry x="10" y="435" width="65" height="30" as="geometry" />
        </mxCell>
        <mxCell id="grhwsShfNfTtGUNL-nIA-91" value="Strategy Pattern" style="text;html=1;strokeColor=#d6b656;fillColor=#fff2cc;align=center;verticalAlign=middle;whiteSpace=wrap;rounded=0;fontSize=18;fontStyle=1" vertex="1" parent="1">
          <mxGeometry x="225" y="1260" width="280" height="40" as="geometry" />
        </mxCell>
        <mxCell id="grhwsShfNfTtGUNL-nIA-92" value="" style="endArrow=diamondThin;endFill=0;endSize=24;html=1;exitX=-0.002;exitY=0.461;exitDx=0;exitDy=0;exitPerimeter=0;" edge="1" parent="1" source="grhwsShfNfTtGUNL-nIA-105" target="grhwsShfNfTtGUNL-nIA-109">
          <mxGeometry width="160" relative="1" as="geometry">
            <mxPoint x="425" y="1409" as="sourcePoint" />
            <mxPoint x="205" y="1409" as="targetPoint" />
          </mxGeometry>
        </mxCell>
        <mxCell id="grhwsShfNfTtGUNL-nIA-93" value="ConcreteComaprator1" style="swimlane;fontStyle=1;align=center;verticalAlign=top;childLayout=stackLayout;horizontal=1;startSize=26;horizontalStack=0;resizeParent=1;resizeParentMax=0;resizeLast=0;collapsible=1;marginBottom=0;" vertex="1" parent="1">
          <mxGeometry x="245" y="1540" width="185" height="94" as="geometry" />
        </mxCell>
        <mxCell id="grhwsShfNfTtGUNL-nIA-95" value="" style="line;strokeWidth=1;fillColor=none;align=left;verticalAlign=middle;spacingTop=-1;spacingLeft=3;spacingRight=3;rotatable=0;labelPosition=right;points=[];portConstraint=eastwest;" vertex="1" parent="grhwsShfNfTtGUNL-nIA-93">
          <mxGeometry y="26" width="185" height="8" as="geometry" />
        </mxCell>
        <mxCell id="grhwsShfNfTtGUNL-nIA-96" value="+ int compare(Object o1, Object o2)&#xa;}" style="text;strokeColor=none;fillColor=none;align=left;verticalAlign=top;spacingLeft=4;spacingRight=4;overflow=hidden;rotatable=0;points=[[0,0.5],[1,0.5]];portConstraint=eastwest;" vertex="1" parent="grhwsShfNfTtGUNL-nIA-93">
          <mxGeometry y="34" width="185" height="60" as="geometry" />
        </mxCell>
        <mxCell id="grhwsShfNfTtGUNL-nIA-105" value="&lt;p style=&quot;margin: 0px ; margin-top: 4px ; text-align: center&quot;&gt;&lt;i&gt;&amp;lt;&amp;lt;Interface&amp;gt;&amp;gt;&lt;/i&gt;&lt;br&gt;&lt;b&gt;Comparator&lt;/b&gt;&lt;/p&gt;&lt;hr size=&quot;1&quot;&gt;&lt;p style=&quot;margin: 0px ; margin-left: 4px&quot;&gt;&lt;span style=&quot;color: rgba(0 , 0 , 0 , 0) ; font-family: monospace ; font-size: 0px&quot;&gt;%3CmxGraphModel%3E%3Croot%3E%3CmxCell%20id%3D%220%22%2F%3E%3CmxCell%20id%3D%221%22%20parent%3D%220%22%2F%3E%3CmxCell%20id%3D%222%22%20value%3D%22%22%20style%3D%22endArrow%3Dblock%3Bdashed%3D1%3BendFill%3D0%3BendSize%3D12%3Bhtml%3D1%3BentryX%3D0.5%3BentryY%3D1%3BentryDx%3D0%3BentryDy%3D0%3BexitX%3D0.5%3BexitY%3D0%3BexitDx%3D0%3BexitDy%3D0%3B%22%20edge%3D%221%22%20parent%3D%221%22%3E%3CmxGeometry%20width%3D%22160%22%20relative%3D%221%22%20as%3D%22geometry%22%3E%3CmxPoint%20x%3D%22610%22%20y%3D%22380%22%20as%3D%22sourcePoint%22%2F%3E%3CmxPoint%20x%3D%22635%22%20y%3D%22320%22%20as%3D%22targetPoint%22%2F%3E%3C%2FmxGeometry%3E%3C%2FmxCell%3E%3C%2Froot%3E%3C%2FmxGraphModel%3&lt;/span&gt;&lt;br&gt;&lt;/p&gt;&lt;hr size=&quot;1&quot;&gt;&lt;p style=&quot;margin: 0px ; margin-left: 4px&quot;&gt;+ int compare(Object o1, Object o2)&lt;/p&gt;" style="verticalAlign=top;align=left;overflow=fill;fontSize=12;fontFamily=Helvetica;html=1;" vertex="1" parent="1">
          <mxGeometry x="425" y="1370" width="205" height="100" as="geometry" />
        </mxCell>
        <mxCell id="grhwsShfNfTtGUNL-nIA-106" value="" style="endArrow=block;dashed=1;endFill=0;endSize=12;html=1;entryX=0.25;entryY=1;entryDx=0;entryDy=0;exitX=0.5;exitY=0;exitDx=0;exitDy=0;" edge="1" parent="1" source="grhwsShfNfTtGUNL-nIA-93" target="grhwsShfNfTtGUNL-nIA-105">
          <mxGeometry width="160" relative="1" as="geometry">
            <mxPoint x="295" y="1530" as="sourcePoint" />
            <mxPoint x="455" y="1530" as="targetPoint" />
          </mxGeometry>
        </mxCell>
        <mxCell id="grhwsShfNfTtGUNL-nIA-107" value="" style="endArrow=block;dashed=1;endFill=0;endSize=12;html=1;entryX=0.458;entryY=0.993;entryDx=0;entryDy=0;exitX=0.5;exitY=0;exitDx=0;exitDy=0;entryPerimeter=0;" edge="1" parent="1" target="grhwsShfNfTtGUNL-nIA-105">
          <mxGeometry width="160" relative="1" as="geometry">
            <mxPoint x="495" y="1540" as="sourcePoint" />
            <mxPoint x="530" y="1490" as="targetPoint" />
          </mxGeometry>
        </mxCell>
        <mxCell id="grhwsShfNfTtGUNL-nIA-109" value="&lt;p style=&quot;margin: 0px ; margin-top: 4px ; text-align: center&quot;&gt;&lt;b&gt;List&lt;/b&gt;&lt;/p&gt;&lt;hr size=&quot;1&quot;&gt;&lt;p style=&quot;margin: 0px ; margin-left: 4px&quot;&gt;- list: ArrayList&lt;/p&gt;&lt;hr size=&quot;1&quot;&gt;&lt;p style=&quot;margin: 0px ; margin-left: 4px&quot;&gt;&lt;br&gt;&lt;/p&gt;" style="verticalAlign=top;align=left;overflow=fill;fontSize=12;fontFamily=Helvetica;html=1;startSize=26;" vertex="1" parent="1">
          <mxGeometry x="58" y="1390" width="170" height="60" as="geometry" />
        </mxCell>
        <mxCell id="grhwsShfNfTtGUNL-nIA-110" value="ConcreteComaprator2" style="swimlane;fontStyle=1;align=center;verticalAlign=top;childLayout=stackLayout;horizontal=1;startSize=26;horizontalStack=0;resizeParent=1;resizeParentMax=0;resizeLast=0;collapsible=1;marginBottom=0;" vertex="1" parent="1">
          <mxGeometry x="470" y="1540" width="160" height="94" as="geometry" />
        </mxCell>
        <mxCell id="grhwsShfNfTtGUNL-nIA-111" value="" style="line;strokeWidth=1;fillColor=none;align=left;verticalAlign=middle;spacingTop=-1;spacingLeft=3;spacingRight=3;rotatable=0;labelPosition=right;points=[];portConstraint=eastwest;" vertex="1" parent="grhwsShfNfTtGUNL-nIA-110">
          <mxGeometry y="26" width="160" height="8" as="geometry" />
        </mxCell>
        <mxCell id="grhwsShfNfTtGUNL-nIA-112" value="+ int compare(Object o1, Object o2)&#xa;}" style="text;strokeColor=none;fillColor=none;align=left;verticalAlign=top;spacingLeft=4;spacingRight=4;overflow=hidden;rotatable=0;points=[[0,0.5],[1,0.5]];portConstraint=eastwest;" vertex="1" parent="grhwsShfNfTtGUNL-nIA-110">
          <mxGeometry y="34" width="160" height="60" as="geometry" />
        </mxCell>
        <mxCell id="grhwsShfNfTtGUNL-nIA-113" value="comparator" style="text;html=1;align=center;verticalAlign=middle;resizable=0;points=[];autosize=1;strokeColor=none;" vertex="1" parent="1">
          <mxGeometry x="350" y="1390" width="80" height="20" as="geometry" />
        </mxCell>
      </root>
    </mxGraphModel>
  </diagram>
</mxfile>
